<svg width="244" height="39" viewBox="0 0 244 39" fill="none" xmlns="http://www.w3.org/2000/svg">
<path d="M22.912 4.304V10.88H9.184V17.984H19.456V24.368H9.184V38H0.975998V4.304H22.912Z" fill="black"/>
<path d="M35.434 15.68C36.394 14.208 37.594 13.056 39.034 12.224C40.474 11.36 42.074 10.928 43.834 10.928V19.616H41.578C39.53 19.616 37.994 20.064 36.97 20.96C35.946 21.824 35.434 23.36 35.434 25.568V38H27.226V11.216H35.434V15.68Z" fill="black"/>
<path d="M73.0052 24.176C73.0052 24.944 72.9573 25.744 72.8613 26.576H54.2852C54.4132 28.24 54.9412 29.52 55.8692 30.416C56.8292 31.28 57.9972 31.712 59.3732 31.712C61.4212 31.712 62.8452 30.848 63.6452 29.12H72.3812C71.9332 30.88 71.1173 32.464 69.9333 33.872C68.7812 35.28 67.3252 36.384 65.5652 37.184C63.8052 37.984 61.8372 38.384 59.6612 38.384C57.0372 38.384 54.7012 37.824 52.6532 36.704C50.6052 35.584 49.0052 33.984 47.8532 31.904C46.7012 29.824 46.1252 27.392 46.1252 24.608C46.1252 21.824 46.6852 19.392 47.8052 17.312C48.9572 15.232 50.5572 13.632 52.6052 12.512C54.6532 11.392 57.0052 10.832 59.6612 10.832C62.2532 10.832 64.5573 11.376 66.5732 12.464C68.5892 13.552 70.1573 15.104 71.2773 17.12C72.4293 19.136 73.0052 21.488 73.0052 24.176ZM64.6052 22.016C64.6052 20.608 64.1252 19.488 63.1652 18.656C62.2052 17.824 61.0052 17.408 59.5653 17.408C58.1892 17.408 57.0212 17.808 56.0612 18.608C55.1332 19.408 54.5572 20.544 54.3332 22.016H64.6052Z" fill="black"/>
<path d="M102.583 24.176C102.583 24.944 102.535 25.744 102.439 26.576H83.8634C83.9914 28.24 84.5194 29.52 85.4474 30.416C86.4074 31.28 87.5754 31.712 88.9514 31.712C90.9994 31.712 92.4234 30.848 93.2234 29.12H101.959C101.511 30.88 100.695 32.464 99.5114 33.872C98.3594 35.28 96.9034 36.384 95.1434 37.184C93.3834 37.984 91.4154 38.384 89.2394 38.384C86.6154 38.384 84.2794 37.824 82.2314 36.704C80.1834 35.584 78.5834 33.984 77.4314 31.904C76.2794 29.824 75.7034 27.392 75.7034 24.608C75.7034 21.824 76.2634 19.392 77.3834 17.312C78.5354 15.232 80.1354 13.632 82.1834 12.512C84.2314 11.392 86.5834 10.832 89.2394 10.832C91.8314 10.832 94.1354 11.376 96.1514 12.464C98.1674 13.552 99.7354 15.104 100.855 17.12C102.007 19.136 102.583 21.488 102.583 24.176ZM94.1834 22.016C94.1834 20.608 93.7034 19.488 92.7434 18.656C91.7834 17.824 90.5834 17.408 89.1434 17.408C87.7674 17.408 86.5994 17.808 85.6394 18.608C84.7114 19.408 84.1354 20.544 83.9114 22.016H94.1834Z" fill="black"/>
<path d="M115.121 2.48V38H106.913V2.48H115.121Z" fill="black"/>
<path d="M119.438 24.56C119.438 21.808 119.95 19.392 120.974 17.312C122.03 15.232 123.454 13.632 125.246 12.512C127.038 11.392 129.038 10.832 131.246 10.832C133.134 10.832 134.782 11.216 136.19 11.984C137.63 12.752 138.734 13.76 139.502 15.008V11.216H147.71V38H139.502V34.208C138.702 35.456 137.582 36.464 136.142 37.232C134.734 38 133.086 38.384 131.198 38.384C129.022 38.384 127.038 37.824 125.246 36.704C123.454 35.552 122.03 33.936 120.974 31.856C119.95 29.744 119.438 27.312 119.438 24.56ZM139.502 24.608C139.502 22.56 138.926 20.944 137.774 19.76C136.654 18.576 135.278 17.984 133.646 17.984C132.014 17.984 130.622 18.576 129.47 19.76C128.35 20.912 127.79 22.512 127.79 24.56C127.79 26.608 128.35 28.24 129.47 29.456C130.622 30.64 132.014 31.232 133.646 31.232C135.278 31.232 136.654 30.64 137.774 29.456C138.926 28.272 139.502 26.656 139.502 24.608Z" fill="black"/>
<path d="M161.856 4.304V38H153.648V4.304H161.856Z" fill="black"/>
<path d="M184.124 10.928C187.26 10.928 189.756 11.952 191.612 14C193.5 16.016 194.444 18.8 194.444 22.352V38H186.284V23.456C186.284 21.664 185.82 20.272 184.892 19.28C183.964 18.288 182.716 17.792 181.148 17.792C179.58 17.792 178.332 18.288 177.404 19.28C176.476 20.272 176.012 21.664 176.012 23.456V38H167.804V11.216H176.012V14.768C176.844 13.584 177.964 12.656 179.372 11.984C180.78 11.28 182.364 10.928 184.124 10.928Z" fill="black"/>
<path d="M213.588 18.032H209.172V38H200.964V18.032H197.988V11.216H200.964V10.448C200.964 7.152 201.908 4.656 203.796 2.96C205.684 1.232 208.452 0.367996 212.1 0.367996C212.708 0.367996 213.156 0.383996 213.444 0.415996V7.376C211.876 7.28 210.772 7.504 210.132 8.048C209.492 8.592 209.172 9.568 209.172 10.976V11.216H213.588V18.032Z" fill="black"/>
<path d="M229.637 38.384C227.013 38.384 224.645 37.824 222.533 36.704C220.453 35.584 218.805 33.984 217.589 31.904C216.405 29.824 215.813 27.392 215.813 24.608C215.813 21.856 216.421 19.44 217.637 17.36C218.853 15.248 220.517 13.632 222.629 12.512C224.741 11.392 227.109 10.832 229.733 10.832C232.357 10.832 234.725 11.392 236.837 12.512C238.949 13.632 240.613 15.248 241.829 17.36C243.045 19.44 243.653 21.856 243.653 24.608C243.653 27.36 243.029 29.792 241.781 31.904C240.565 33.984 238.885 35.584 236.741 36.704C234.629 37.824 232.261 38.384 229.637 38.384ZM229.637 31.28C231.205 31.28 232.533 30.704 233.621 29.552C234.741 28.4 235.301 26.752 235.301 24.608C235.301 22.464 234.757 20.816 233.669 19.664C232.613 18.512 231.301 17.936 229.733 17.936C228.133 17.936 226.805 18.512 225.749 19.664C224.693 20.784 224.165 22.432 224.165 24.608C224.165 26.752 224.677 28.4 225.701 29.552C226.757 30.704 228.069 31.28 229.637 31.28Z" fill="black"/>
</svg>
